<svg width="94" height="98" viewBox="0 0 94 98" fill="none" xmlns="http://www.w3.org/2000/svg">
<g filter="url(#filter0_d_827_61)">
<g clip-path="url(#clip0_827_61)">
<path d="M9.41602 53.9468C9.54428 54.0018 9.63458 54.0378 9.72357 54.0779C10.5821 54.4661 11.3634 54.9355 12.1356 55.4148C12.7769 55.8131 13.4155 56.2164 14.0804 56.5906C15.5147 57.3962 17.1284 57.9135 18.8389 58.2648C20.378 58.58 21.9459 58.7731 23.5295 58.9002C27.1808 59.1934 30.8427 59.2275 34.5085 59.1494C36.4546 59.1084 38.3993 59.0423 40.3454 58.9863C40.5221 58.9813 40.6988 58.9663 40.8873 58.9553V28.6521C40.5823 28.6711 40.2852 28.6891 39.9868 28.7081C39.1008 28.7651 38.2148 28.8402 37.3275 28.8772C35.5398 28.9503 33.752 29.0163 31.963 29.0603C30.1726 29.1044 28.3823 29.0633 26.5945 28.9803C24.032 28.8612 21.4918 28.622 19.0038 28.1197C17.2685 27.7694 15.5959 27.2971 14.0555 26.5806C12.4798 25.8481 11.1789 24.9074 10.2889 23.6576C9.67122 22.791 9.31786 21.8593 9.11894 20.8886C9.06135 20.6054 9.01816 20.3192 8.9632 20C9.07444 20.042 9.14642 20.066 9.21316 20.0961C10.2039 20.5354 11.0873 21.0868 11.972 21.6381C12.5478 21.9974 13.1263 22.3546 13.7283 22.6869C15.2334 23.5165 16.9256 24.0318 18.7146 24.3761C20.1882 24.6603 21.6841 24.8384 23.1944 24.9585C26.6573 25.2337 30.1307 25.2717 33.6081 25.2096C35.2191 25.1806 36.8315 25.1446 38.4412 25.0886C40.1033 25.0305 41.7641 24.9485 43.4249 24.8684C44.731 24.8054 46.0345 24.7293 47.3407 24.6603C48.7292 24.5872 50.1178 24.5022 51.5077 24.4471C53.5048 24.3681 55.5046 24.343 57.5043 24.4021C58.4872 24.4311 59.4714 24.4641 60.4516 24.5242C63.904 24.7353 67.3002 25.1656 70.5577 26.1053C72.4972 26.6657 74.3138 27.3972 75.9078 28.4239C77.8055 29.6458 79.16 31.1418 79.8157 32.9871C80.1403 33.8997 80.2476 34.8264 80.1612 35.768C80.1573 35.8161 80.1507 35.8641 80.1403 35.9111C80.1337 35.9422 80.118 35.9722 80.0958 36.0282C80.0565 35.9812 80.0277 35.9542 80.0094 35.9241C79.0304 34.339 77.5581 33.0722 75.7298 32.0344C74.1227 31.1218 72.3533 30.4423 70.487 29.8999C68.4585 29.3105 66.3671 28.8992 64.2365 28.596C62.5992 28.3629 60.9515 28.1937 59.2947 28.0847C56.863 27.9245 54.4262 27.8555 51.9854 27.9225C51.1177 27.9466 50.25 27.9916 49.3836 28.0276C49.3129 28.0306 49.2423 28.0426 49.1559 28.0526V58.508C49.2789 58.508 49.4006 58.512 49.5223 58.507C50.9541 58.4539 52.3858 58.3879 53.8189 58.3468C55.693 58.2938 57.5658 58.3228 59.4386 58.3999C60.8717 58.4589 62.2982 58.555 63.7195 58.7061C66.8396 59.0383 69.8837 59.5837 72.7433 60.6284C74.5624 61.2929 76.2127 62.1405 77.5856 63.2813C79.1888 64.6132 80.1861 66.1693 80.5303 67.9636C80.6428 68.552 80.6494 69.1434 80.597 69.7358C80.5905 69.8119 80.563 69.8859 80.5368 70C80.4256 69.8569 80.3431 69.7478 80.2567 69.6407C79.5644 68.7912 78.6902 68.0616 77.7165 67.3982C75.8869 66.1513 73.8007 65.2177 71.5615 64.4731C69.2516 63.7056 66.8474 63.1732 64.383 62.791C62.4841 62.4957 60.5668 62.2996 58.6377 62.1725C56.2885 62.0184 53.9341 61.9834 51.577 62.0144C49.4412 62.0424 47.3092 62.1375 45.1839 62.2966C43.5283 62.4207 41.8754 62.5688 40.2172 62.6759C38.5485 62.7829 36.8773 62.876 35.206 62.9331C33.5544 62.9891 31.9002 63.0161 30.2459 63.0151C28.2043 63.0141 26.1653 62.923 24.1367 62.7359C21.9105 62.5308 19.7158 62.2115 17.5956 61.6381C16.0997 61.2329 14.685 60.7085 13.4142 59.971C11.4864 58.8502 10.2654 57.3842 9.74713 55.5789C9.62018 55.1346 9.54166 54.6823 9.44481 54.233C9.42649 54.1479 9.42649 54.0618 9.41602 53.9468Z" fill="white"/>
<path d="M64.9567 43.7835C64.8415 43.7585 64.7277 43.7315 64.6112 43.7085C63.5734 43.5033 62.635 43.1591 61.821 42.6147C59.6171 41.1417 59.4207 38.6759 61.1326 36.9827C62.1128 36.0131 63.4202 35.4257 64.9724 35.1655C65.5103 35.0754 66.0678 35.0244 66.6188 35.0104C68.6578 34.9583 70.6746 35.0994 72.6521 35.4967C74.1545 35.7979 75.5523 36.2732 76.7655 37.0268C78.4328 38.0635 79.4418 39.3994 79.8135 41.0166C79.9863 41.7661 80.0648 42.5216 80.0648 43.2842C80.0622 46.2042 80.0674 49.1252 80.0753 52.0453C80.0766 52.7898 80.142 53.5313 80.375 54.2588C80.4927 54.6261 80.6773 54.9713 80.9521 55.2896C81.3382 55.7369 81.8905 55.958 82.5789 55.9981C82.6718 56.0031 82.7647 56.0061 82.8773 56.0111V56.3243C82.8681 56.3303 82.8537 56.3483 82.838 56.3483C81.295 56.3523 79.7625 56.2843 78.2862 55.9C77.2065 55.6188 76.3009 55.1525 75.7001 54.3879C75.2512 53.8155 75.0196 53.1871 74.911 52.5316C74.8442 52.1293 74.8115 51.7241 74.7578 51.2748C74.6924 51.3898 74.644 51.4719 74.5995 51.5559C74.0878 52.5306 73.3889 53.4142 72.4309 54.1738C71.096 55.2315 69.4705 55.891 67.5964 56.1722C65.3179 56.5134 63.0381 56.4854 60.7818 56.0441C59.104 55.7169 57.6736 55.0724 56.5795 54.0287C55.7406 53.2281 55.2603 52.3105 55.0639 51.3028C54.9174 50.5462 54.903 49.7887 55.0875 49.0342C55.3584 47.9304 56.1018 47.0318 57.1606 46.2753C58.0989 45.6048 59.2009 45.1335 60.3879 44.7792C61.8628 44.3399 63.3967 44.0597 64.9489 43.8315C64.9528 43.8165 64.9554 43.8005 64.9567 43.7835ZM74.784 43.7545C73.9778 43.7545 73.2057 43.7565 72.4322 43.7545C70.9848 43.7505 69.5478 43.8415 68.1252 44.0457C66.9316 44.2178 65.7616 44.456 64.6583 44.8563C62.8235 45.5217 61.482 46.5494 60.7452 48.0115C60.4259 48.6439 60.2897 49.3054 60.2426 49.9798C60.1733 50.9855 60.278 51.9772 60.7138 52.9359C61.376 54.3939 62.6834 55.2766 64.6963 55.5167C66.1987 55.6968 67.6789 55.6048 69.1342 55.2776C70.8761 54.8863 72.215 54.0897 73.1664 52.9099C73.6637 52.2935 74.0263 51.633 74.2828 50.9365C74.6244 50.0069 74.7696 49.0552 74.7814 48.0925C74.7984 46.6925 74.7893 45.2936 74.7906 43.8936C74.7906 43.8546 74.788 43.8155 74.784 43.7545ZM74.7879 43.3662C74.7879 43.2822 74.7893 43.2271 74.7879 43.1721C74.7683 42.3875 74.678 41.608 74.521 40.8324C74.3561 40.0169 74.11 39.2173 73.6494 38.4658C72.711 36.9357 71.2151 35.913 69.0347 35.5207C68.3189 35.3916 67.5912 35.3396 66.857 35.3456C65.7145 35.3556 64.6047 35.5027 63.5734 35.885C61.7359 36.5675 60.6169 37.6692 60.4193 39.2453C60.2204 40.8264 61.4257 42.3635 63.3273 43.029C63.9673 43.2531 64.6348 43.4132 65.3258 43.5043C65.9553 43.5874 66.5874 43.6404 67.23 43.5944C68.1356 43.5293 69.0413 43.4513 69.9495 43.4263C71.4441 43.3852 72.9413 43.3832 74.4372 43.3652C74.5406 43.3652 74.644 43.3652 74.7879 43.3652V43.3662Z" fill="white"/>
<path d="M18.4358 31.542C18.3494 31.538 18.3088 31.533 18.2683 31.534C16.8457 31.549 15.4205 31.539 13.9992 31.586C12.5713 31.6331 11.1762 31.8362 9.86355 32.2975C8.63334 32.7298 7.61906 33.3743 6.74483 34.1558C6.00931 34.8133 5.35887 35.5188 4.74246 36.2443C4.69141 36.3043 4.63907 36.3624 4.57755 36.4334C4.48725 36.4084 4.40218 36.3854 4.28571 36.3544C4.69141 34.6542 5.09581 32.959 5.50283 31.2528H36.0423C36.4532 32.952 36.8615 34.6472 37.2751 36.3564C37.173 36.3844 37.0892 36.4074 36.9911 36.4344C36.7987 36.2183 36.6142 36.0061 36.4244 35.797C35.8224 35.1325 35.1981 34.4811 34.4888 33.8796C33.0662 32.6728 31.2824 31.9843 29.1989 31.7231C28.1322 31.59 27.0578 31.539 25.9781 31.535C25.0881 31.532 24.1982 31.534 23.3082 31.534H23.0177V42.6038C23.0177 45.4838 23.0164 48.3648 23.019 51.2448C23.019 51.7331 23.0491 52.2215 23.1904 52.6998C23.2598 52.932 23.354 53.1621 23.4666 53.3853C23.6511 53.7516 24.0071 53.9927 24.4952 54.1028C24.7936 54.1699 25.1064 54.2019 25.414 54.2419C25.5449 54.2589 25.681 54.2549 25.8302 54.2619V54.5391C22.434 54.4 19.0404 54.2839 15.6233 54.5521C15.6141 54.444 15.6089 54.368 15.6011 54.2639C15.7411 54.2569 15.8641 54.2599 15.9819 54.2439C16.3104 54.1999 16.6454 54.1719 16.9608 54.0948C17.4752 53.9697 17.8312 53.6995 18.0497 53.3183C18.2971 52.885 18.3638 52.4246 18.4031 51.9613C18.4306 51.6341 18.4319 51.3058 18.4332 50.9776C18.4345 44.5931 18.4345 38.2077 18.4345 31.8232C18.4345 31.7351 18.4345 31.6481 18.4345 31.542H18.4358Z" fill="white"/>
</g>
</g>
<defs>
<filter id="filter0_d_827_61" x="0.285706" y="0" width="93.7143" height="98" filterUnits="userSpaceOnUse" color-interpolation-filters="sRGB">
<feFlood flood-opacity="0" result="BackgroundImageFix"/>
<feColorMatrix in="SourceAlpha" type="matrix" values="0 0 0 0 0 0 0 0 0 0 0 0 0 0 0 0 0 0 127 0" result="hardAlpha"/>
<feOffset dy="4"/>
<feGaussianBlur stdDeviation="2"/>
<feComposite in2="hardAlpha" operator="out"/>
<feColorMatrix type="matrix" values="0 0 0 0 0 0 0 0 0 0 0 0 0 0 0 0 0 0 0.25 0"/>
<feBlend mode="normal" in2="BackgroundImageFix" result="effect1_dropShadow_827_61"/>
<feBlend mode="normal" in="SourceGraphic" in2="effect1_dropShadow_827_61" result="shape"/>
</filter>
<clipPath id="clip0_827_61">
<rect x="4.28571" width="85.7143" height="90" rx="10" fill="white"/>
</clipPath>
</defs>
</svg>
